<svg width="22" height="22" viewBox="0 0 22 22" fill="none" xmlns="http://www.w3.org/2000/svg">
  <path 
    d="M15.3927 3.57866C16.5976 3.64527 17.7273 4.18541 18.5357 5.08136C19.344 5.97731 19.7656 7.15645 19.7083 8.36183C19.7083 11.1778 17.2773 12.9076 14.9444 14.982C12.6417 17.0381 11.4015 18.1619 11 18.4213C10.5627 18.1381 9.03557 16.7502 7.05557 14.982C4.71257 12.8993 2.29166 11.1531 2.29166 8.36183C2.23443 7.15645 2.65593 5.97731 3.46431 5.08136C4.27269 4.18541 5.40243 3.64527 6.60732 3.57866C7.27479 3.55843 7.93608 3.71175 8.52656 4.02361C9.11703 4.33548 9.61648 4.79523 9.97607 5.35791C10.7461 6.435 10.8744 6.97399 11.0027 6.97399C11.1311 6.97399 11.2576 6.435 12.0202 5.35516C12.3778 4.78987 12.8774 4.3283 13.4692 4.01657C14.061 3.70483 14.7242 3.55383 15.3927 3.57866Z" 
    fill="red" 
    stroke="#252525" 
    stroke-width="0.5"
  />
</svg>
