<svg width="35" height="35" viewBox="0 0 35 35" fill="none" xmlns="http://www.w3.org/2000/svg">
<rect width="35" height="35" rx="17.5" fill="#24ACFF"/>
<path d="M13.44 26.39C21.693 26.39 26.2115 19.551 26.2115 13.6185C26.2115 13.426 26.2115 13.23 26.1975 13.0375C27.076 12.4005 27.8355 11.6165 28.4375 10.7135C27.6185 11.0775 26.7505 11.3155 25.8615 11.4205C26.7995 10.8605 27.4995 9.97849 27.8355 8.93899C26.9535 9.46049 25.991 9.83149 24.9865 10.0275C23.2855 8.22149 20.4435 8.13399 18.6375 9.83149C17.472 10.927 16.9785 12.5615 17.339 14.119C13.7305 13.937 10.367 12.2325 8.08846 9.42899C6.89846 11.48 7.50396 14.1015 9.47796 15.421C8.76396 15.4 8.06396 15.2075 7.44096 14.861C7.44096 14.8785 7.44096 14.8995 7.44096 14.917C7.44096 17.052 8.94596 18.893 11.0425 19.3165C10.381 19.495 9.68796 19.523 9.01596 19.3935C9.60396 21.2205 11.2875 22.4735 13.209 22.512C11.62 23.7615 9.65646 24.4405 7.63696 24.437C7.27996 24.437 6.92296 24.416 6.56946 24.3705C8.61346 25.69 11.004 26.39 13.44 26.3865" fill="white"/>
</svg>
